# xmcd
# 
# Track frame offsets:
#     150
#     19580
#     43048
#     63807
#     85304
#     108273
#     131560
#     148786
#     171386
#     191101
#     218360
#     244054
#     273075
# 
# Disc length: 3923
# 
# Revision: 2
# Processed by: cddbd v1.5.2PL0 Copyright (c) Steve Scherf et al.
# Submitted via: fre:ac v1.0.27
# 
DISCID=b20f510d
DTITLE=Michael Powers - Revolutionary Boogie
DYEAR=2011
DGENRE=Blues
TTITLE0=I Miss Your Kissin'
TTITLE1=Bleecker Street Strut
TTITLE2=Power of Midnight Lightnin'
TTITLE3=Got's To Go
TTITLE4=Spanish Castle Magic
TTITLE5=Shake Your Money Maker
TTITLE6=It's About That Time
TTITLE7=I Ain't Superstitious
TTITLE8=Lookin For The Truth
TTITLE9=Uprising
TTITLE10=Honeybee
TTITLE11=Revolutionary Boogie
TTITLE12=Gotta Go Right Now
EXTD=
EXTT0=
EXTT1=
EXTT2=
EXTT3=
EXTT4=
EXTT5=
EXTT6=
EXTT7=
EXTT8=
EXTT9=
EXTT10=
EXTT11=
EXTT12=
PLAYORDER=
